<?xml version="1.0" encoding="UTF-8"?>
<svg xmlns="http://www.w3.org/2000/svg" xmlns:xlink="http://www.w3.org/1999/xlink" width="6377.952756" height="4251.968504" viewBox="0 0 6377.952756 4251.968504">
<path fill-rule="nonzero" fill="rgb(50%, 50%, 50%)" fill-opacity="1" d="M 0 0 L 6377.953125 0 L 6377.953125 4251.96875 L 0 4251.96875 Z M 0 0 "/>
<path fill-rule="nonzero" fill="rgb(100%, 100%, 100%)" fill-opacity="1" d="M 0 0 L 6377.953125 0 L 6377.953125 4251.96875 L 0 4251.96875 Z M 0 0 "/>
<path fill-rule="nonzero" fill="rgb(0%, 0%, 0%)" fill-opacity="1" d="M 141.730469 141.730469 L 566.925781 141.730469 L 566.925781 566.925781 L 141.730469 566.925781 Z M 141.730469 141.730469 "/>
<path fill-rule="nonzero" fill="rgb(100%, 100%, 100%)" fill-opacity="1" d="M 212.597656 212.597656 L 283.464844 212.597656 L 283.464844 283.464844 L 212.597656 283.464844 Z M 212.597656 212.597656 "/>
<path fill-rule="nonzero" fill="rgb(100%, 100%, 100%)" fill-opacity="1" d="M 354.332031 212.597656 L 496.0625 212.597656 L 496.0625 425.195312 L 425.195312 425.195312 L 425.195312 496.0625 L 354.332031 496.0625 L 354.332031 354.332031 L 425.195312 354.332031 L 425.195312 283.464844 L 354.332031 283.464844 Z M 354.332031 212.597656 "/>
<path fill-rule="nonzero" fill="rgb(100%, 100%, 100%)" fill-opacity="1" d="M 283.464844 283.464844 L 354.332031 283.464844 L 354.332031 354.332031 L 283.464844 354.332031 Z M 283.464844 283.464844 "/>
<path fill-rule="nonzero" fill="rgb(0%, 0%, 0%)" fill-opacity="1" d="M 212.597656 212.597656 Z M 0 708.660156 L 708.660156 708.660156 L 708.660156 1417.320312 L 0 1417.320312 Z M 0 708.660156 "/>
<path fill-rule="nonzero" fill="rgb(0%, 0%, 0%)" fill-opacity="1" d="M 141.730469 1559.054688 L 566.925781 1559.054688 L 566.925781 1984.25 L 141.730469 1984.25 Z M 141.730469 1559.054688 "/>
<path fill-rule="nonzero" fill="rgb(100%, 100%, 100%)" fill-opacity="1" d="M 212.597656 1629.921875 L 354.332031 1629.921875 L 354.332031 1700.789062 L 496.0625 1700.789062 L 496.0625 1842.519531 L 425.195312 1842.519531 L 425.195312 1771.652344 L 354.332031 1771.652344 L 354.332031 1842.519531 L 425.195312 1842.519531 L 425.195312 1913.386719 L 283.464844 1913.386719 L 283.464844 1771.652344 L 212.597656 1771.652344 Z M 212.597656 1629.921875 "/>
<path fill-rule="nonzero" fill="rgb(0%, 0%, 0%)" fill-opacity="1" d="M 212.597656 1629.921875 Z M 0 2125.984375 L 708.660156 2125.984375 L 708.660156 2834.644531 L 0 2834.644531 Z M 0 2125.984375 "/>
<path fill-rule="nonzero" fill="rgb(0%, 0%, 0%)" fill-opacity="1" d="M 141.730469 2976.378906 L 566.925781 2976.378906 L 566.925781 3401.574219 L 141.730469 3401.574219 Z M 141.730469 2976.378906 "/>
<path fill-rule="nonzero" fill="rgb(100%, 100%, 100%)" fill-opacity="1" d="M 283.464844 3047.242188 L 425.195312 3047.242188 L 425.195312 3118.109375 L 354.332031 3118.109375 L 354.332031 3259.84375 L 425.195312 3259.84375 L 425.195312 3330.707031 L 212.597656 3330.707031 L 212.597656 3259.84375 L 283.464844 3259.84375 L 283.464844 3188.976562 L 212.597656 3188.976562 L 212.597656 3118.109375 L 283.464844 3118.109375 Z M 283.464844 3047.242188 "/>
<path fill-rule="nonzero" fill="rgb(100%, 100%, 100%)" fill-opacity="1" d="M 425.195312 3188.976562 L 496.0625 3188.976562 L 496.0625 3259.84375 L 425.195312 3259.84375 Z M 425.195312 3188.976562 "/>
<path fill-rule="nonzero" fill="rgb(0%, 0%, 0%)" fill-opacity="1" d="M 212.597656 3047.242188 Z M 0 3543.308594 L 708.660156 3543.308594 L 708.660156 4251.96875 L 0 4251.96875 Z M 0 3543.308594 "/>
<path fill-rule="nonzero" fill="rgb(0%, 0%, 0%)" fill-opacity="1" d="M 708.660156 0 L 1417.320312 0 L 1417.320312 708.660156 L 708.660156 708.660156 Z M 708.660156 0 "/>
<path fill-rule="nonzero" fill="rgb(0%, 0%, 0%)" fill-opacity="1" d="M 850.394531 850.394531 L 1275.589844 850.394531 L 1275.589844 1275.589844 L 850.394531 1275.589844 Z M 850.394531 850.394531 "/>
<path fill-rule="nonzero" fill="rgb(100%, 100%, 100%)" fill-opacity="1" d="M 992.125 921.261719 L 1204.722656 921.261719 L 1204.722656 1062.992188 L 1133.859375 1062.992188 L 1133.859375 992.125 L 992.125 992.125 Z M 992.125 921.261719 "/>
<path fill-rule="nonzero" fill="rgb(100%, 100%, 100%)" fill-opacity="1" d="M 921.261719 992.125 L 992.125 992.125 L 992.125 1062.992188 L 1062.992188 1062.992188 L 1062.992188 1204.722656 L 921.261719 1204.722656 Z M 921.261719 992.125 "/>
<path fill-rule="nonzero" fill="rgb(100%, 100%, 100%)" fill-opacity="1" d="M 1133.859375 1133.859375 L 1204.722656 1133.859375 L 1204.722656 1204.722656 L 1133.859375 1204.722656 Z M 1133.859375 1133.859375 "/>
<path fill-rule="nonzero" fill="rgb(0%, 0%, 0%)" fill-opacity="1" d="M 921.261719 921.261719 Z M 708.660156 1417.324219 L 1417.320312 1417.324219 L 1417.320312 2125.984375 L 708.660156 2125.984375 Z M 708.660156 1417.324219 "/>
<path fill-rule="nonzero" fill="rgb(0%, 0%, 0%)" fill-opacity="1" d="M 850.394531 2267.714844 L 1275.589844 2267.714844 L 1275.589844 2692.910156 L 850.394531 2692.910156 Z M 850.394531 2267.714844 "/>
<path fill-rule="nonzero" fill="rgb(100%, 100%, 100%)" fill-opacity="1" d="M 1062.992188 2338.582031 L 1133.859375 2338.582031 L 1133.859375 2409.449219 L 1062.992188 2409.449219 Z M 1062.992188 2338.582031 "/>
<path fill-rule="nonzero" fill="rgb(100%, 100%, 100%)" fill-opacity="1" d="M 992.125 2409.449219 L 1062.992188 2409.449219 L 1062.992188 2480.316406 L 992.125 2480.316406 Z M 992.125 2409.449219 "/>
<path fill-rule="nonzero" fill="rgb(100%, 100%, 100%)" fill-opacity="1" d="M 921.261719 2480.316406 L 992.125 2480.316406 L 992.125 2551.179688 L 921.261719 2551.179688 Z M 921.261719 2480.316406 "/>
<path fill-rule="nonzero" fill="rgb(100%, 100%, 100%)" fill-opacity="1" d="M 1062.992188 2480.316406 L 1204.722656 2480.316406 L 1204.722656 2622.046875 L 1133.859375 2622.046875 L 1133.859375 2551.179688 L 1062.992188 2551.179688 Z M 1062.992188 2480.316406 "/>
<path fill-rule="nonzero" fill="rgb(0%, 0%, 0%)" fill-opacity="1" d="M 921.261719 2338.582031 Z M 708.660156 2834.644531 L 1417.320312 2834.644531 L 1417.320312 3543.304688 L 708.660156 3543.304688 Z M 708.660156 2834.644531 "/>
<path fill-rule="nonzero" fill="rgb(0%, 0%, 0%)" fill-opacity="1" d="M 850.394531 3685.039062 L 1275.589844 3685.039062 L 1275.589844 4110.234375 L 850.394531 4110.234375 Z M 850.394531 3685.039062 "/>
<path fill-rule="nonzero" fill="rgb(100%, 100%, 100%)" fill-opacity="1" d="M 921.261719 3755.90625 L 1062.992188 3755.90625 L 1062.992188 3897.636719 L 992.125 3897.636719 L 992.125 3968.503906 L 921.261719 3968.503906 Z M 921.261719 3755.90625 "/>
<path fill-rule="nonzero" fill="rgb(100%, 100%, 100%)" fill-opacity="1" d="M 1133.859375 3755.90625 L 1204.722656 3755.90625 L 1204.722656 3897.636719 L 1133.859375 3897.636719 Z M 1133.859375 3755.90625 "/>
<path fill-rule="nonzero" fill="rgb(100%, 100%, 100%)" fill-opacity="1" d="M 1062.992188 3968.503906 L 1133.859375 3968.503906 L 1133.859375 4039.371094 L 1062.992188 4039.371094 Z M 1062.992188 3968.503906 "/>
<path fill-rule="nonzero" fill="rgb(0%, 0%, 0%)" fill-opacity="1" d="M 921.261719 3755.90625 Z M 1559.054688 141.730469 L 1984.25 141.730469 L 1984.25 566.925781 L 1559.054688 566.925781 Z M 1559.054688 141.730469 "/>
<path fill-rule="nonzero" fill="rgb(100%, 100%, 100%)" fill-opacity="1" d="M 1629.921875 283.464844 L 1913.386719 283.464844 L 1913.386719 425.195312 L 1842.519531 425.195312 L 1842.519531 354.332031 L 1700.789062 354.332031 L 1700.789062 496.0625 L 1629.921875 496.0625 Z M 1629.921875 283.464844 "/>
<path fill-rule="nonzero" fill="rgb(100%, 100%, 100%)" fill-opacity="1" d="M 1771.652344 425.195312 L 1842.519531 425.195312 L 1842.519531 496.0625 L 1771.652344 496.0625 Z M 1771.652344 425.195312 "/>
<path fill-rule="nonzero" fill="rgb(0%, 0%, 0%)" fill-opacity="1" d="M 1629.921875 212.597656 Z M 1417.324219 708.660156 L 2125.984375 708.660156 L 2125.984375 1417.320312 L 1417.324219 1417.320312 Z M 1417.324219 708.660156 "/>
<path fill-rule="nonzero" fill="rgb(0%, 0%, 0%)" fill-opacity="1" d="M 1559.054688 1559.054688 L 1984.25 1559.054688 L 1984.25 1984.25 L 1559.054688 1984.25 Z M 1559.054688 1559.054688 "/>
<path fill-rule="nonzero" fill="rgb(100%, 100%, 100%)" fill-opacity="1" d="M 1629.921875 1629.921875 L 1913.386719 1629.921875 L 1913.386719 1913.386719 L 1842.519531 1913.386719 L 1842.519531 1700.789062 L 1700.789062 1700.789062 L 1700.789062 1842.519531 L 1629.921875 1842.519531 Z M 1629.921875 1629.921875 "/>
<path fill-rule="nonzero" fill="rgb(0%, 0%, 0%)" fill-opacity="1" d="M 1629.921875 1629.921875 Z M 1417.324219 2125.984375 L 2125.984375 2125.984375 L 2125.984375 2834.644531 L 1417.324219 2834.644531 Z M 1417.324219 2125.984375 "/>
<path fill-rule="nonzero" fill="rgb(0%, 0%, 0%)" fill-opacity="1" d="M 1559.054688 2976.378906 L 1984.25 2976.378906 L 1984.25 3401.574219 L 1559.054688 3401.574219 Z M 1559.054688 2976.378906 "/>
<path fill-rule="nonzero" fill="rgb(100%, 100%, 100%)" fill-opacity="1" d="M 1700.789062 3047.242188 L 1913.386719 3047.242188 L 1913.386719 3118.109375 L 1842.519531 3118.109375 L 1842.519531 3259.84375 L 1913.386719 3259.84375 L 1913.386719 3330.707031 L 1629.921875 3330.707031 L 1629.921875 3188.976562 L 1700.789062 3188.976562 L 1700.789062 3259.84375 L 1771.652344 3259.84375 L 1771.652344 3188.976562 L 1700.789062 3188.976562 Z M 1700.789062 3047.242188 "/>
<path fill-rule="nonzero" fill="rgb(0%, 0%, 0%)" fill-opacity="1" d="M 1629.921875 3047.242188 Z M 1417.324219 3543.308594 L 2125.984375 3543.308594 L 2125.984375 4251.96875 L 1417.324219 4251.96875 Z M 1417.324219 3543.308594 "/>
<path fill-rule="nonzero" fill="rgb(0%, 0%, 0%)" fill-opacity="1" d="M 2125.984375 0 L 2834.644531 0 L 2834.644531 708.660156 L 2125.984375 708.660156 Z M 2125.984375 0 "/>
<path fill-rule="nonzero" fill="rgb(0%, 0%, 0%)" fill-opacity="1" d="M 2267.714844 850.394531 L 2692.910156 850.394531 L 2692.910156 1275.589844 L 2267.714844 1275.589844 Z M 2267.714844 850.394531 "/>
<path fill-rule="nonzero" fill="rgb(100%, 100%, 100%)" fill-opacity="1" d="M 2338.582031 921.261719 L 2409.449219 921.261719 L 2409.449219 992.125 L 2551.179688 992.125 L 2551.179688 1204.722656 L 2338.582031 1204.722656 L 2338.582031 1133.859375 L 2480.316406 1133.859375 L 2480.316406 1062.992188 L 2338.582031 1062.992188 Z M 2338.582031 921.261719 "/>
<path fill-rule="nonzero" fill="rgb(100%, 100%, 100%)" fill-opacity="1" d="M 2551.179688 921.261719 L 2622.046875 921.261719 L 2622.046875 992.125 L 2551.179688 992.125 Z M 2551.179688 921.261719 "/>
<path fill-rule="nonzero" fill="rgb(0%, 0%, 0%)" fill-opacity="1" d="M 2338.582031 921.261719 Z M 2125.984375 1417.324219 L 2834.644531 1417.324219 L 2834.644531 2125.984375 L 2125.984375 2125.984375 Z M 2125.984375 1417.324219 "/>
<path fill-rule="nonzero" fill="rgb(0%, 0%, 0%)" fill-opacity="1" d="M 2267.714844 2267.714844 L 2692.910156 2267.714844 L 2692.910156 2692.910156 L 2267.714844 2692.910156 Z M 2267.714844 2267.714844 "/>
<path fill-rule="nonzero" fill="rgb(100%, 100%, 100%)" fill-opacity="1" d="M 2480.316406 2338.582031 L 2551.179688 2338.582031 L 2551.179688 2480.316406 L 2622.046875 2480.316406 L 2622.046875 2551.179688 L 2551.179688 2551.179688 L 2551.179688 2622.046875 L 2338.582031 2622.046875 L 2338.582031 2551.179688 L 2480.316406 2551.179688 L 2480.316406 2480.316406 L 2409.449219 2480.316406 L 2409.449219 2409.449219 L 2480.316406 2409.449219 Z M 2480.316406 2338.582031 "/>
<path fill-rule="nonzero" fill="rgb(0%, 0%, 0%)" fill-opacity="1" d="M 2338.582031 2338.582031 Z M 2125.984375 2834.644531 L 2834.644531 2834.644531 L 2834.644531 3543.304688 L 2125.984375 3543.304688 Z M 2125.984375 2834.644531 "/>
<path fill-rule="nonzero" fill="rgb(0%, 0%, 0%)" fill-opacity="1" d="M 2267.714844 3685.039062 L 2692.910156 3685.039062 L 2692.910156 4110.234375 L 2267.714844 4110.234375 Z M 2267.714844 3685.039062 "/>
<path fill-rule="nonzero" fill="rgb(100%, 100%, 100%)" fill-opacity="1" d="M 2338.582031 3755.90625 L 2622.046875 3755.90625 L 2622.046875 3826.773438 L 2551.179688 3826.773438 L 2551.179688 3897.636719 L 2480.316406 3897.636719 L 2480.316406 3968.503906 L 2622.046875 3968.503906 L 2622.046875 4039.371094 L 2409.449219 4039.371094 L 2409.449219 3897.636719 L 2338.582031 3897.636719 Z M 2338.582031 3755.90625 "/>
<path fill-rule="nonzero" fill="rgb(0%, 0%, 0%)" fill-opacity="1" d="M 2338.582031 3755.90625 Z M 2976.378906 141.730469 L 3401.574219 141.730469 L 3401.574219 566.925781 L 2976.378906 566.925781 Z M 2976.378906 141.730469 "/>
<path fill-rule="nonzero" fill="rgb(100%, 100%, 100%)" fill-opacity="1" d="M 3188.976562 212.597656 L 3330.707031 212.597656 L 3330.707031 354.332031 L 3259.84375 354.332031 L 3259.84375 425.195312 L 3188.976562 425.195312 Z M 3188.976562 212.597656 "/>
<path fill-rule="nonzero" fill="rgb(100%, 100%, 100%)" fill-opacity="1" d="M 3047.242188 425.195312 L 3188.976562 425.195312 L 3188.976562 496.0625 L 3047.242188 496.0625 Z M 3047.242188 425.195312 "/>
<path fill-rule="nonzero" fill="rgb(100%, 100%, 100%)" fill-opacity="1" d="M 3259.84375 425.195312 L 3330.707031 425.195312 L 3330.707031 496.0625 L 3259.84375 496.0625 Z M 3259.84375 425.195312 "/>
<path fill-rule="nonzero" fill="rgb(0%, 0%, 0%)" fill-opacity="1" d="M 3047.242188 212.597656 Z M 2834.644531 708.660156 L 3543.304688 708.660156 L 3543.304688 1417.320312 L 2834.644531 1417.320312 Z M 2834.644531 708.660156 "/>
<path fill-rule="nonzero" fill="rgb(0%, 0%, 0%)" fill-opacity="1" d="M 2976.378906 1559.054688 L 3401.574219 1559.054688 L 3401.574219 1984.25 L 2976.378906 1984.25 Z M 2976.378906 1559.054688 "/>
<path fill-rule="nonzero" fill="rgb(100%, 100%, 100%)" fill-opacity="1" d="M 3259.84375 1629.921875 L 3330.707031 1629.921875 L 3330.707031 1771.652344 L 3259.84375 1771.652344 Z M 3259.84375 1629.921875 "/>
<path fill-rule="nonzero" fill="rgb(100%, 100%, 100%)" fill-opacity="1" d="M 3047.242188 1771.652344 L 3118.109375 1771.652344 L 3118.109375 1842.519531 L 3047.242188 1842.519531 Z M 3047.242188 1771.652344 "/>
<path fill-rule="nonzero" fill="rgb(100%, 100%, 100%)" fill-opacity="1" d="M 3188.976562 1771.652344 L 3259.84375 1771.652344 L 3259.84375 1842.519531 L 3330.707031 1842.519531 L 3330.707031 1913.386719 L 3118.109375 1913.386719 L 3118.109375 1842.519531 L 3188.976562 1842.519531 Z M 3188.976562 1771.652344 "/>
<path fill-rule="nonzero" fill="rgb(0%, 0%, 0%)" fill-opacity="1" d="M 3047.242188 1629.921875 Z M 2834.644531 2125.984375 L 3543.304688 2125.984375 L 3543.304688 2834.644531 L 2834.644531 2834.644531 Z M 2834.644531 2125.984375 "/>
<path fill-rule="nonzero" fill="rgb(0%, 0%, 0%)" fill-opacity="1" d="M 2976.378906 2976.378906 L 3401.574219 2976.378906 L 3401.574219 3401.574219 L 2976.378906 3401.574219 Z M 2976.378906 2976.378906 "/>
<path fill-rule="nonzero" fill="rgb(100%, 100%, 100%)" fill-opacity="1" d="M 3047.242188 3047.242188 L 3118.109375 3047.242188 L 3118.109375 3118.109375 L 3047.242188 3118.109375 Z M 3047.242188 3047.242188 "/>
<path fill-rule="nonzero" fill="rgb(100%, 100%, 100%)" fill-opacity="1" d="M 3118.109375 3118.109375 L 3259.84375 3118.109375 L 3259.84375 3188.976562 L 3118.109375 3188.976562 Z M 3118.109375 3118.109375 "/>
<path fill-rule="nonzero" fill="rgb(100%, 100%, 100%)" fill-opacity="1" d="M 3047.242188 3188.976562 L 3118.109375 3188.976562 L 3118.109375 3330.707031 L 3047.242188 3330.707031 Z M 3047.242188 3188.976562 "/>
<path fill-rule="nonzero" fill="rgb(100%, 100%, 100%)" fill-opacity="1" d="M 3188.976562 3259.84375 L 3330.707031 3259.84375 L 3330.707031 3330.707031 L 3188.976562 3330.707031 Z M 3188.976562 3259.84375 "/>
<path fill-rule="nonzero" fill="rgb(0%, 0%, 0%)" fill-opacity="1" d="M 3047.242188 3047.242188 Z M 2834.644531 3543.308594 L 3543.304688 3543.308594 L 3543.304688 4251.96875 L 2834.644531 4251.96875 Z M 2834.644531 3543.308594 "/>
<path fill-rule="nonzero" fill="rgb(0%, 0%, 0%)" fill-opacity="1" d="M 3543.308594 0 L 4251.96875 0 L 4251.96875 708.660156 L 3543.308594 708.660156 Z M 3543.308594 0 "/>
<path fill-rule="nonzero" fill="rgb(0%, 0%, 0%)" fill-opacity="1" d="M 3685.039062 850.394531 L 4110.234375 850.394531 L 4110.234375 1275.589844 L 3685.039062 1275.589844 Z M 3685.039062 850.394531 "/>
<path fill-rule="nonzero" fill="rgb(100%, 100%, 100%)" fill-opacity="1" d="M 3755.90625 921.261719 L 3897.636719 921.261719 L 3897.636719 1062.992188 L 4039.371094 1062.992188 L 4039.371094 1133.859375 L 3968.503906 1133.859375 L 3968.503906 1204.722656 L 3897.636719 1204.722656 L 3897.636719 1133.859375 L 3755.90625 1133.859375 L 3755.90625 1062.992188 L 3826.773438 1062.992188 L 3826.773438 992.125 L 3755.90625 992.125 Z M 3755.90625 921.261719 "/>
<path fill-rule="nonzero" fill="rgb(0%, 0%, 0%)" fill-opacity="1" d="M 3755.90625 921.261719 Z M 3543.308594 1417.324219 L 4251.96875 1417.324219 L 4251.96875 2125.984375 L 3543.308594 2125.984375 Z M 3543.308594 1417.324219 "/>
<path fill-rule="nonzero" fill="rgb(0%, 0%, 0%)" fill-opacity="1" d="M 3685.039062 2267.714844 L 4110.234375 2267.714844 L 4110.234375 2692.910156 L 3685.039062 2692.910156 Z M 3685.039062 2267.714844 "/>
<path fill-rule="nonzero" fill="rgb(100%, 100%, 100%)" fill-opacity="1" d="M 3826.773438 2338.582031 L 3897.636719 2338.582031 L 3897.636719 2409.449219 L 3968.503906 2409.449219 L 3968.503906 2551.179688 L 3897.636719 2551.179688 L 3897.636719 2622.046875 L 3826.773438 2622.046875 Z M 3826.773438 2338.582031 "/>
<path fill-rule="nonzero" fill="rgb(100%, 100%, 100%)" fill-opacity="1" d="M 3968.503906 2551.179688 L 4039.371094 2551.179688 L 4039.371094 2622.046875 L 3968.503906 2622.046875 Z M 3968.503906 2551.179688 "/>
<path fill-rule="nonzero" fill="rgb(0%, 0%, 0%)" fill-opacity="1" d="M 3755.90625 2338.582031 Z M 3543.308594 2834.644531 L 4251.96875 2834.644531 L 4251.96875 3543.304688 L 3543.308594 3543.304688 Z M 3543.308594 2834.644531 "/>
<path fill-rule="nonzero" fill="rgb(0%, 0%, 0%)" fill-opacity="1" d="M 3685.039062 3685.039062 L 4110.234375 3685.039062 L 4110.234375 4110.234375 L 3685.039062 4110.234375 Z M 3685.039062 3685.039062 "/>
<path fill-rule="nonzero" fill="rgb(100%, 100%, 100%)" fill-opacity="1" d="M 3755.90625 3755.90625 L 3826.773438 3755.90625 L 3826.773438 3826.773438 L 3755.90625 3826.773438 Z M 3755.90625 3755.90625 "/>
<path fill-rule="nonzero" fill="rgb(100%, 100%, 100%)" fill-opacity="1" d="M 3968.503906 3755.90625 L 4039.371094 3755.90625 L 4039.371094 3826.773438 L 3968.503906 3826.773438 Z M 3968.503906 3755.90625 "/>
<path fill-rule="nonzero" fill="rgb(100%, 100%, 100%)" fill-opacity="1" d="M 3826.773438 3826.773438 L 3897.636719 3826.773438 L 3897.636719 3897.636719 L 4039.371094 3897.636719 L 4039.371094 4039.371094 L 3968.503906 4039.371094 L 3968.503906 3968.503906 L 3826.773438 3968.503906 Z M 3826.773438 3826.773438 "/>
<path fill-rule="nonzero" fill="rgb(0%, 0%, 0%)" fill-opacity="1" d="M 3755.90625 3755.90625 Z M 4393.699219 141.730469 L 4818.894531 141.730469 L 4818.894531 566.925781 L 4393.699219 566.925781 Z M 4393.699219 141.730469 "/>
<path fill-rule="nonzero" fill="rgb(100%, 100%, 100%)" fill-opacity="1" d="M 4464.566406 212.597656 L 4535.433594 212.597656 L 4535.433594 354.332031 L 4464.566406 354.332031 Z M 4464.566406 212.597656 "/>
<path fill-rule="nonzero" fill="rgb(100%, 100%, 100%)" fill-opacity="1" d="M 4677.164062 212.597656 L 4748.03125 212.597656 L 4748.03125 354.332031 L 4677.164062 354.332031 Z M 4677.164062 212.597656 "/>
<path fill-rule="nonzero" fill="rgb(100%, 100%, 100%)" fill-opacity="1" d="M 4535.433594 354.332031 L 4606.300781 354.332031 L 4606.300781 425.195312 L 4677.164062 425.195312 L 4677.164062 496.0625 L 4535.433594 496.0625 Z M 4535.433594 354.332031 "/>
<path fill-rule="nonzero" fill="rgb(0%, 0%, 0%)" fill-opacity="1" d="M 4464.566406 212.597656 Z M 4251.96875 708.660156 L 4960.628906 708.660156 L 4960.628906 1417.320312 L 4251.96875 1417.320312 Z M 4251.96875 708.660156 "/>
<path fill-rule="nonzero" fill="rgb(0%, 0%, 0%)" fill-opacity="1" d="M 4393.699219 1559.054688 L 4818.894531 1559.054688 L 4818.894531 1984.25 L 4393.699219 1984.25 Z M 4393.699219 1559.054688 "/>
<path fill-rule="nonzero" fill="rgb(100%, 100%, 100%)" fill-opacity="1" d="M 4464.566406 1700.789062 L 4677.164062 1700.789062 L 4677.164062 1771.652344 L 4748.03125 1771.652344 L 4748.03125 1913.386719 L 4535.433594 1913.386719 L 4535.433594 1842.519531 L 4606.300781 1842.519531 L 4606.300781 1771.652344 L 4535.433594 1771.652344 L 4535.433594 1842.519531 L 4464.566406 1842.519531 Z M 4464.566406 1700.789062 "/>
<path fill-rule="nonzero" fill="rgb(0%, 0%, 0%)" fill-opacity="1" d="M 4464.566406 1629.921875 Z M 4251.96875 2125.984375 L 4960.628906 2125.984375 L 4960.628906 2834.644531 L 4251.96875 2834.644531 Z M 4251.96875 2125.984375 "/>
<path fill-rule="nonzero" fill="rgb(0%, 0%, 0%)" fill-opacity="1" d="M 4393.699219 2976.378906 L 4818.894531 2976.378906 L 4818.894531 3401.574219 L 4393.699219 3401.574219 Z M 4393.699219 2976.378906 "/>
<path fill-rule="nonzero" fill="rgb(100%, 100%, 100%)" fill-opacity="1" d="M 4464.566406 3047.242188 L 4535.433594 3047.242188 L 4535.433594 3118.109375 L 4464.566406 3118.109375 Z M 4464.566406 3047.242188 "/>
<path fill-rule="nonzero" fill="rgb(100%, 100%, 100%)" fill-opacity="1" d="M 4606.300781 3047.242188 L 4748.03125 3047.242188 L 4748.03125 3118.109375 L 4606.300781 3118.109375 Z M 4606.300781 3047.242188 "/>
<path fill-rule="nonzero" fill="rgb(100%, 100%, 100%)" fill-opacity="1" d="M 4606.300781 3188.976562 L 4677.164062 3188.976562 L 4677.164062 3259.84375 L 4748.03125 3259.84375 L 4748.03125 3330.707031 L 4606.300781 3330.707031 Z M 4606.300781 3188.976562 "/>
<path fill-rule="nonzero" fill="rgb(100%, 100%, 100%)" fill-opacity="1" d="M 4464.566406 3259.84375 L 4535.433594 3259.84375 L 4535.433594 3330.707031 L 4464.566406 3330.707031 Z M 4464.566406 3259.84375 "/>
<path fill-rule="nonzero" fill="rgb(0%, 0%, 0%)" fill-opacity="1" d="M 4464.566406 3047.242188 Z M 4251.96875 3543.308594 L 4960.628906 3543.308594 L 4960.628906 4251.96875 L 4251.96875 4251.96875 Z M 4251.96875 3543.308594 "/>
<path fill-rule="nonzero" fill="rgb(0%, 0%, 0%)" fill-opacity="1" d="M 4960.628906 0 L 5669.289062 0 L 5669.289062 708.660156 L 4960.628906 708.660156 Z M 4960.628906 0 "/>
<path fill-rule="nonzero" fill="rgb(0%, 0%, 0%)" fill-opacity="1" d="M 5102.363281 850.394531 L 5527.558594 850.394531 L 5527.558594 1275.589844 L 5102.363281 1275.589844 Z M 5102.363281 850.394531 "/>
<path fill-rule="nonzero" fill="rgb(100%, 100%, 100%)" fill-opacity="1" d="M 5173.226562 921.261719 L 5456.691406 921.261719 L 5456.691406 992.125 L 5385.828125 992.125 L 5385.828125 1062.992188 L 5314.960938 1062.992188 L 5314.960938 1133.859375 L 5244.09375 1133.859375 L 5244.09375 1204.722656 L 5173.226562 1204.722656 Z M 5173.226562 921.261719 "/>
<path fill-rule="nonzero" fill="rgb(100%, 100%, 100%)" fill-opacity="1" d="M 5385.828125 1062.992188 L 5456.691406 1062.992188 L 5456.691406 1133.859375 L 5385.828125 1133.859375 Z M 5385.828125 1062.992188 "/>
<path fill-rule="nonzero" fill="rgb(100%, 100%, 100%)" fill-opacity="1" d="M 5314.960938 1133.859375 L 5385.828125 1133.859375 L 5385.828125 1204.722656 L 5314.960938 1204.722656 Z M 5314.960938 1133.859375 "/>
<path fill-rule="nonzero" fill="rgb(0%, 0%, 0%)" fill-opacity="1" d="M 5173.226562 921.261719 Z M 4960.628906 1417.324219 L 5669.289062 1417.324219 L 5669.289062 2125.984375 L 4960.628906 2125.984375 Z M 4960.628906 1417.324219 "/>
<path fill-rule="nonzero" fill="rgb(0%, 0%, 0%)" fill-opacity="1" d="M 5102.363281 2267.714844 L 5527.558594 2267.714844 L 5527.558594 2692.910156 L 5102.363281 2692.910156 Z M 5102.363281 2267.714844 "/>
<path fill-rule="nonzero" fill="rgb(100%, 100%, 100%)" fill-opacity="1" d="M 5244.09375 2338.582031 L 5385.828125 2338.582031 L 5385.828125 2480.316406 L 5244.09375 2480.316406 Z M 5244.09375 2338.582031 "/>
<path fill-rule="nonzero" fill="rgb(0%, 0%, 0%)" fill-opacity="1" d="M 5173.226562 2338.582031 Z M 4960.628906 2834.644531 L 5669.289062 2834.644531 L 5669.289062 3543.304688 L 4960.628906 3543.304688 Z M 4960.628906 2834.644531 "/>
<path fill-rule="nonzero" fill="rgb(0%, 0%, 0%)" fill-opacity="1" d="M 5102.363281 3685.039062 L 5527.558594 3685.039062 L 5527.558594 4110.234375 L 5102.363281 4110.234375 Z M 5102.363281 3685.039062 "/>
<path fill-rule="nonzero" fill="rgb(100%, 100%, 100%)" fill-opacity="1" d="M 5173.226562 3755.90625 L 5244.09375 3755.90625 L 5244.09375 3826.773438 L 5314.960938 3826.773438 L 5314.960938 3897.636719 L 5385.828125 3897.636719 L 5385.828125 3968.503906 L 5314.960938 3968.503906 L 5314.960938 4039.371094 L 5244.09375 4039.371094 L 5244.09375 3968.503906 L 5173.226562 3968.503906 Z M 5173.226562 3755.90625 "/>
<path fill-rule="nonzero" fill="rgb(100%, 100%, 100%)" fill-opacity="1" d="M 5314.960938 3755.90625 L 5385.828125 3755.90625 L 5385.828125 3826.773438 L 5314.960938 3826.773438 Z M 5314.960938 3755.90625 "/>
<path fill-rule="nonzero" fill="rgb(0%, 0%, 0%)" fill-opacity="1" d="M 5173.226562 3755.90625 Z M 5811.023438 141.730469 L 6236.21875 141.730469 L 6236.21875 566.925781 L 5811.023438 566.925781 Z M 5811.023438 141.730469 "/>
<path fill-rule="nonzero" fill="rgb(100%, 100%, 100%)" fill-opacity="1" d="M 5952.757812 212.597656 L 6023.621094 212.597656 L 6023.621094 354.332031 L 5952.757812 354.332031 Z M 5952.757812 212.597656 "/>
<path fill-rule="nonzero" fill="rgb(100%, 100%, 100%)" fill-opacity="1" d="M 6094.488281 212.597656 L 6165.355469 212.597656 L 6165.355469 283.464844 L 6094.488281 283.464844 Z M 6094.488281 212.597656 "/>
<path fill-rule="nonzero" fill="rgb(100%, 100%, 100%)" fill-opacity="1" d="M 5881.890625 354.332031 L 5952.757812 354.332031 L 5952.757812 425.195312 L 6094.488281 425.195312 L 6094.488281 496.0625 L 5881.890625 496.0625 Z M 5881.890625 354.332031 "/>
<path fill-rule="nonzero" fill="rgb(100%, 100%, 100%)" fill-opacity="1" d="M 6094.488281 354.332031 L 6165.355469 354.332031 L 6165.355469 425.195312 L 6094.488281 425.195312 Z M 6094.488281 354.332031 "/>
<path fill-rule="nonzero" fill="rgb(0%, 0%, 0%)" fill-opacity="1" d="M 5881.890625 212.597656 Z M 5669.292969 708.660156 L 6377.953125 708.660156 L 6377.953125 1417.320312 L 5669.292969 1417.320312 Z M 5669.292969 708.660156 "/>
<path fill-rule="nonzero" fill="rgb(0%, 0%, 0%)" fill-opacity="1" d="M 5811.023438 1559.054688 L 6236.21875 1559.054688 L 6236.21875 1984.25 L 5811.023438 1984.25 Z M 5811.023438 1559.054688 "/>
<path fill-rule="nonzero" fill="rgb(100%, 100%, 100%)" fill-opacity="1" d="M 6023.621094 1629.921875 L 6094.488281 1629.921875 L 6094.488281 1771.652344 L 6023.621094 1771.652344 Z M 6023.621094 1629.921875 "/>
<path fill-rule="nonzero" fill="rgb(100%, 100%, 100%)" fill-opacity="1" d="M 5881.890625 1700.789062 L 5952.757812 1700.789062 L 5952.757812 1771.652344 L 5881.890625 1771.652344 Z M 5881.890625 1700.789062 "/>
<path fill-rule="nonzero" fill="rgb(100%, 100%, 100%)" fill-opacity="1" d="M 5881.890625 1842.519531 L 6165.355469 1842.519531 L 6165.355469 1913.386719 L 5881.890625 1913.386719 Z M 5881.890625 1842.519531 "/>
<path fill-rule="nonzero" fill="rgb(0%, 0%, 0%)" fill-opacity="1" d="M 5881.890625 1629.921875 Z M 5669.292969 2125.984375 L 6377.953125 2125.984375 L 6377.953125 2834.644531 L 5669.292969 2834.644531 Z M 5669.292969 2125.984375 "/>
<path fill-rule="nonzero" fill="rgb(0%, 0%, 0%)" fill-opacity="1" d="M 5811.023438 2976.378906 L 6236.21875 2976.378906 L 6236.21875 3401.574219 L 5811.023438 3401.574219 Z M 5811.023438 2976.378906 "/>
<path fill-rule="nonzero" fill="rgb(100%, 100%, 100%)" fill-opacity="1" d="M 5881.890625 3047.242188 L 6023.621094 3047.242188 L 6023.621094 3330.707031 L 5952.757812 3330.707031 L 5952.757812 3259.84375 L 5881.890625 3259.84375 Z M 5881.890625 3047.242188 "/>
<path fill-rule="nonzero" fill="rgb(100%, 100%, 100%)" fill-opacity="1" d="M 6094.488281 3188.976562 L 6165.355469 3188.976562 L 6165.355469 3330.707031 L 6094.488281 3330.707031 Z M 6094.488281 3188.976562 "/>
<path fill-rule="nonzero" fill="rgb(0%, 0%, 0%)" fill-opacity="1" d="M 5881.890625 3047.242188 Z M 5669.292969 3543.308594 L 6377.953125 3543.308594 L 6377.953125 4251.96875 L 5669.292969 4251.96875 Z M 5669.292969 3543.308594 "/>
</svg>
